<?xml version="1.0" encoding="UTF-8" standalone="no"?>
<svg
   height="16px"
   viewBox="0 0 16 16"
   width="16px"
   version="1.1"
   id="svg4"
   sodipodi:docname="draw-ellipse.svg"
   inkscape:version="1.4 (e7c3feb100, 2024-10-09)"
   xml:space="preserve"
   xmlns:inkscape="http://www.inkscape.org/namespaces/inkscape"
   xmlns:sodipodi="http://sodipodi.sourceforge.net/DTD/sodipodi-0.dtd"
   xmlns:xlink="http://www.w3.org/1999/xlink"
   xmlns="http://www.w3.org/2000/svg"
   xmlns:svg="http://www.w3.org/2000/svg"><defs
     id="defs8"><clipPath
       id="a"><path
         d="m 13,11 a 3,3 0 1 0 -3,3 3,3 0 0 0 3,-3 z m -3,5 a 5,5 0 1 1 5,-5 5,5 0 0 1 -5,5 z M 6.42,2.56 5.75,3.2 A 2,2 0 0 1 4.37,3.76 H 2 A 1.89,1.89 0 0 0 0,5.51 v 10.54 a 1.89,1.89 0 0 0 2,1.76 h 16 a 1.89,1.89 0 0 0 2,-1.76 V 5.51 A 1.89,1.89 0 0 0 18,3.75 H 15.63 A 2,2 0 0 1 14.25,3.19 L 13.58,2.55 A 2,2 0 0 0 12.2,2 H 7.8 A 2,2 0 0 0 6.42,2.56 Z"
         clip-rule="evenodd"
         id="path2-3" /></clipPath><linearGradient
       id="linearGradient930"><stop
         offset="0"
         style="stop-color:#cd9ef7;stop-opacity:1"
         id="stop926" /><stop
         offset="1"
         style="stop-color:#a56de2;stop-opacity:1"
         id="stop928" /></linearGradient><linearGradient
       id="linearGradient4011"><stop
         offset="0"
         style="stop-color:#ffffff;stop-opacity:1"
         id="stop4013" /><stop
         offset="0.507761"
         style="stop-color:#ffffff;stop-opacity:0.23529412"
         id="stop4015-3" /><stop
         offset="0.83456558"
         style="stop-color:#ffffff;stop-opacity:0.15686275"
         id="stop4017-2" /><stop
         offset="1"
         style="stop-color:#ffffff;stop-opacity:0.39215687"
         id="stop4019" /></linearGradient><linearGradient
       gradientTransform="matrix(0.5135135,0,0,0.5135135,-24.83614,-1.0212801)"
       gradientUnits="userSpaceOnUse"
       xlink:href="#linearGradient4011"
       id="linearGradient12398-3"
       y2="44.340794"
       x2="71.204407"
       y1="6.2375584"
       x1="71.204407" /><linearGradient
       gradientTransform="matrix(0.8047894,0,0,0.60165743,-1628.8199,-1928.0804)"
       gradientUnits="userSpaceOnUse"
       xlink:href="#linearGradient930"
       id="linearGradient11527-6-5"
       y2="3241.9966"
       x2="2035.1652"
       y1="3208.0737"
       x1="2035.1652" /><radialGradient
       cx="99.157013"
       cy="186.17059"
       r="62.769119"
       fx="99.157013"
       fy="186.17059"
       id="radialGradient3108"
       xlink:href="#linearGradient3820-7-2-2"
       gradientUnits="userSpaceOnUse"
       gradientTransform="matrix(0.11151981,0,0,0.03548359,0.942029,15.166729)" /><linearGradient
       id="linearGradient3820-7-2-2"><stop
         offset="0"
         style="stop-color:#3d3d3d;stop-opacity:1"
         id="stop3822-2-6-36" /><stop
         offset="0.5"
         style="stop-color:#686868;stop-opacity:0.49803922"
         id="stop3864-8-7-6" /><stop
         offset="1"
         style="stop-color:#686868;stop-opacity:0"
         id="stop3824-1-2-4" /></linearGradient></defs><sodipodi:namedview
     id="namedview6"
     pagecolor="#ffffff"
     bordercolor="#000000"
     borderopacity="0.25"
     inkscape:showpageshadow="2"
     inkscape:pageopacity="0.0"
     inkscape:pagecheckerboard="0"
     inkscape:deskcolor="#d1d1d1"
     showgrid="false"
     inkscape:zoom="61.125"
     inkscape:cx="5.9222904"
     inkscape:cy="8.9161554"
     inkscape:window-width="2560"
     inkscape:window-height="1379"
     inkscape:window-x="0"
     inkscape:window-y="34"
     inkscape:window-maximized="1"
     inkscape:current-layer="g1252" /><g
     id="g248"
     transform="translate(-21.515069,-7.9788424)" /><g
     id="g1252"
     transform="matrix(0.51570334,0,0,0.51570334,1.8115599,1.8115599)"><path
       style="color:#000000;font-variation-settings:normal;display:inline;overflow:visible;visibility:visible;fill:none;fill-opacity:1;stroke:#8940d9;stroke-width:1.9845;stroke-linecap:round;stroke-linejoin:miter;stroke-miterlimit:4;stroke-dasharray:none;stroke-dashoffset:0;stroke-opacity:0.937255;marker:none;enable-background:accumulate"
       id="path2555-7-8-5-1-2-7"
       d="m 12.04175,4.1057795 c -4.3919239,0 -7.9597623,3.5678393 -7.9597623,7.9597655 0,4.391925 3.5678384,7.959764 7.9597623,7.959764 4.391926,0 7.959773,-3.567839 7.959765,-7.959764 0,-4.3919262 -3.567839,-7.9597655 -7.959765,-7.9597655 z" /><path
       style="color:#000000;font-variation-settings:normal;display:inline;overflow:visible;visibility:visible;opacity:0.43393179;fill:none;fill-opacity:1;stroke:#7d2cd5;stroke-width:1.67732092;stroke-linecap:round;stroke-linejoin:miter;stroke-miterlimit:4;stroke-dasharray:none;stroke-dashoffset:0;stroke-opacity:1;marker:none;enable-background:accumulate"
       id="path2555-7-8-5-1"
       d="M 12,1.4999999 C 6.2064599,1.4999999 1.4999999,6.2064599 1.4999999,12 1.4999999,17.79354 6.2064599,22.5 12,22.5 17.79354,22.5 22.50001,17.79354 22.5,12 22.5,6.2064599 17.79354,1.4999999 12,1.4999999 Z" /><path
       style="color:#000000;font-variation-settings:normal;display:inline;overflow:visible;visibility:visible;opacity:1;fill:none;fill-opacity:1;stroke:#a56de2;stroke-width:1.19255;stroke-linecap:round;stroke-linejoin:miter;stroke-miterlimit:4;stroke-dasharray:none;stroke-dashoffset:0;stroke-opacity:1;marker:none;enable-background:accumulate"
       id="path2555-7-8-5-1-2"
       d="m 11.988987,2.8178854 c -5.0611787,0 -9.1726957,4.1115171 -9.1726957,9.1726966 0,5.06118 4.111517,9.172697 9.1726957,9.172697 5.06118,0 9.172706,-4.111517 9.172697,-9.172697 0,-5.0611795 -4.111517,-9.1726966 -9.172697,-9.1726966 z" /></g></svg>
